<svg width="87" height="87" viewBox="0 0 87 87" fill="none" xmlns="http://www.w3.org/2000/svg">
<path d="M43.9152 77.2908L52.306 69.1561L60.6969 61.0214H65.5502H70.4036L69.5379 61.8894C69.0618 62.3669 63.0999 68.196 56.2892 74.8432L50.9314 80.0724C47.0305 83.8796 40.7995 83.8611 36.9209 80.0311L32.78 75.9419L21.6538 64.9549L26.4676 64.9404L31.2813 64.9259L35.8036 69.355C38.2909 71.791 41.1335 74.5732 42.1205 75.5375L43.9152 77.2908Z" fill="#3460CF"/>
<path d="M3.68999 40.3344C5.20046 38.8811 7.06259 37.0813 9.05872 35.1276L18.0296 26.3477H22.9942H27.9589L27.2655 27.0224C26.8841 27.3935 22.7588 31.3221 18.0981 35.7526L9.6241 43.808L18.6758 52.5644L27.7274 61.3207L22.8197 61.3229L17.9119 61.325L8.98274 52.6852C6.97342 50.7409 5.15029 48.9142 3.67866 47.4344C1.84425 45.5898 1.8153 42.138 3.68999 40.3344Z" fill="black"/>
<path d="M21.8605 21.9974L32.992 10.9987L37.4132 6.63021C41.1395 2.94839 47.1277 2.92787 50.8791 6.58406C54.5947 10.2053 60.5741 16.0397 64.1667 19.5495L70.6986 25.9309H65.8354H60.9721L60.5947 25.5587C60.3872 25.3539 56.5993 21.6928 52.1772 17.4227L44.137 9.65907L37.8035 15.8444L31.47 22.0297L26.6653 22.0135L21.8605 21.9974Z" fill="#3460CF"/>
<path d="M67.155 35.1355C67.632 34.9145 68.3079 34.7096 68.8593 34.6187C69.5839 34.4993 70.7167 34.5456 71.3851 34.7219C72.7963 35.0942 73.8693 35.9389 74.5002 37.1743L74.5806 37.3317C74.6357 37.4396 74.7845 37.4528 74.8577 37.3563C74.9447 37.2418 75.251 36.9 75.5385 36.5968C76.8112 35.2544 78.1256 34.64 79.9095 34.5538C81.6161 34.4713 83.1075 35.0288 84.1581 36.142C85.1382 37.1803 85.7393 38.6654 85.9598 40.5932C86.0263 41.1754 86.0396 42.2309 86.0396 46.9299V49.9634C86.0396 51.402 84.8735 52.5681 83.435 52.5681C81.9964 52.5681 80.8303 51.402 80.8302 49.9634L80.8301 47.4685C80.83 44.0811 80.8105 42.2062 80.7719 41.8844C80.5374 39.9264 79.717 38.9511 78.3046 38.9511C77.2571 38.9511 76.4033 39.545 75.9296 40.6032C75.6244 41.285 75.621 41.3592 75.621 47.2199V49.9634C75.621 51.402 74.4548 52.5681 73.0163 52.5681C71.5777 52.5681 70.4114 51.402 70.4111 49.9634L70.4107 47.4685C70.4101 44.4691 70.3882 42.1582 70.3574 41.8575C70.2171 40.4882 69.7203 39.5694 68.8957 39.1542C68.6044 39.0075 68.4832 38.9791 68.0698 38.9606C67.2465 38.9238 66.6867 39.1552 66.1243 39.765C65.7288 40.1938 65.3958 40.8397 65.2811 41.4C65.2165 41.7162 65.2039 42.6442 65.2031 47.1724L65.2027 49.9634C65.2024 51.402 64.0362 52.5681 62.5976 52.5681C61.159 52.5681 59.9928 51.402 59.9926 49.9634L59.9923 46.0153C59.9916 40.0732 59.9502 36.782 59.8585 35.4123C59.8405 35.1429 60.0541 34.9144 60.3242 34.9144H62.0886H64.0138C64.2059 34.9144 64.3669 35.0597 64.3865 35.2508L64.5091 36.444C64.5575 36.9151 64.6208 37.3075 64.6497 37.3158C64.6787 37.3241 64.7971 37.1949 64.9128 37.0288C65.4201 36.301 66.3693 35.4994 67.155 35.1355Z" fill="black"/>
<path d="M47.0852 35.8294C48.2451 35.2055 50.1256 34.6903 51.6539 34.5778C52.6919 34.5014 54.1057 34.565 55.1361 34.7346C55.7583 34.837 56.9135 35.1294 57.0332 35.2148C57.1134 35.272 57.0783 35.4793 56.6822 37.2866C56.3442 38.8292 56.2237 39.2922 56.1627 39.2835C56.119 39.2772 55.8704 39.209 55.6102 39.132C54.8811 38.9161 54.1708 38.8239 53.2139 38.8209C52.2359 38.8177 51.7135 38.902 51.0527 39.1695C49.0611 39.9757 47.9967 41.9088 48.202 44.3466C48.389 46.5653 49.6231 48.063 51.7294 48.6271C52.1345 48.7356 52.3087 48.7483 53.3532 48.7458C54.6068 48.7427 55.1661 48.6662 56.0393 48.3781C56.2416 48.3113 56.4557 48.441 56.4903 48.6511L56.7595 50.2865L57.0628 52.1288C57.0814 52.2418 57.0194 52.3527 56.9133 52.3959C55.7953 52.8514 53.3808 53.1721 51.5703 53.1055C49.3594 53.0241 47.6048 52.5177 46.0266 51.5055C45.404 51.1062 44.3131 50.0402 43.9012 49.4287C42.0684 46.7079 41.8346 42.7255 43.3283 39.67C44.0905 38.1106 45.4746 36.6958 47.0852 35.8294Z" fill="black"/>
<path fill-rule="evenodd" clip-rule="evenodd" d="M30.2705 34.6032C29.0465 34.7127 27.7234 35.0001 26.5716 35.4068C25.9229 35.6358 25.0783 36.0135 25.0314 36.0956C25.0101 36.1328 25.8572 39.2738 25.9717 39.5823C25.9909 39.6342 26.0872 39.6025 26.3302 39.4643C27.1558 38.9948 28.4087 38.5893 29.5435 38.4242C30.3428 38.3079 31.6746 38.336 32.1807 38.4798C33.254 38.7847 33.8472 39.451 33.9382 40.4536C33.9565 40.6553 33.8038 40.8318 33.6016 40.8427L32.7844 40.8868C29.9405 41.0402 27.8768 41.6072 26.313 42.665C25.7504 43.0456 24.8642 43.976 24.552 44.5139C23.9822 45.4959 23.7451 46.5265 23.7845 47.8502C23.8113 48.7507 23.9084 49.2142 24.2226 49.9417C24.5669 50.7387 25.3389 51.6666 26.0685 52.1604C28.0475 53.5001 31.137 53.4198 33.2225 51.9747C33.4083 51.8459 33.7387 51.562 33.9566 51.3436C34.1747 51.1253 34.3712 50.9467 34.3934 50.9467C34.4156 50.9467 34.4465 51.0017 34.462 51.0689C34.5 51.2331 34.753 52.6471 34.7536 52.6986C34.7539 52.7211 35.8541 52.7394 37.1985 52.7394C39.5014 52.7394 39.6413 52.7339 39.6158 52.6443C39.5563 52.4356 39.4726 51.4593 39.4238 50.4034C39.3955 49.7909 39.3719 47.5226 39.3714 45.3627C39.3708 42.9535 39.3486 41.2318 39.3138 40.9082C38.9472 37.4916 37.1513 35.4004 34.0378 34.7649C32.9784 34.5486 31.5603 34.4878 30.2705 34.6032ZM34.0597 46.9549C34.0914 46.779 34.1174 46.114 34.1174 45.4771V44.8896C34.1174 44.576 33.8605 44.3232 33.547 44.3283C30.6427 44.3748 29.0766 45.3516 29.0766 47.1168C29.0766 47.7783 29.3454 48.4348 29.7436 48.7457C30.1204 49.04 30.4925 49.1697 31.0371 49.1965C31.3279 49.2109 31.6748 49.1939 31.85 49.1566C32.8869 48.9362 33.8807 47.946 34.0597 46.9549Z" fill="black"/>
</svg>
