<svg width="145" height="122" viewBox="0 0 145 122" fill="none" xmlns="http://www.w3.org/2000/svg">
<path fill-rule="evenodd" clip-rule="evenodd" d="M124.535 79.4624L117.653 69.9972C120.071 69.7052 122.601 70.2907 124.727 71.8353L144.293 86.0503L129.077 90.5297L129.371 106.589L113.306 94.917L124.535 79.4624Z" fill="#DEAAFF"/>
<path fill-rule="evenodd" clip-rule="evenodd" d="M38.2258 16.7553L49.3542 20.3752C48.8847 17.9851 47.546 15.7596 45.42 14.215L25.8547 -2.0973e-05L10.9328 20.5383L25.8547 -7.76783e-06L26.2966 15.8555L10.9328 20.5383L26.9974 32.2099L38.2258 16.7553Z" fill="#DEAAFF"/>
<rect x="38.1892" y="17.6609" width="105.568" height="36.949" transform="rotate(36 38.1892 17.6609)" fill="#DEAAFF"/>
<path d="M51.2189 37.8521C51.5998 37.3278 51.7972 36.8928 51.8112 36.5469C51.8445 36.2152 51.6962 35.9294 51.3661 35.6896C51.036 35.4498 50.7087 35.3899 50.3841 35.5101C50.0594 35.6302 49.7067 35.9524 49.3258 36.4766L39.5286 49.9613C38.795 50.971 38.7486 51.7086 39.3894 52.1741C39.7195 52.4139 40.0371 52.4667 40.3423 52.3325C40.6669 52.2123 41.0267 51.8804 41.4217 51.3367L44.2995 47.3758L47.2411 49.513L44.6595 53.0662C43.5874 54.5418 42.4479 55.3752 41.2411 55.5664C40.0343 55.7575 38.8386 55.4228 37.6542 54.5623C36.4698 53.7018 35.7724 52.6611 35.5618 51.4401C35.3707 50.2333 35.8111 48.892 36.8833 47.4164L46.1091 34.7181C47.1672 33.2618 48.2925 32.4479 49.4853 32.2761C50.7115 32.0991 51.9168 32.4408 53.1012 33.3014C54.2856 34.1619 54.9734 35.1955 55.1646 36.4024C55.3698 37.5898 54.9434 38.9116 53.8854 40.3679L51.2827 43.9502L48.3411 41.813L51.2189 37.8521ZM53.5903 59.5548C52.5464 60.9916 51.4237 61.8223 50.2222 62.047C49.0206 62.2717 47.8083 61.9396 46.585 61.0509C45.3618 60.1622 44.6617 59.1047 44.4846 57.8784C44.327 56.6663 44.7701 55.3418 45.8141 53.905L55.0399 41.2067C56.0556 39.8087 57.1642 38.9974 58.3658 38.7727C59.5673 38.548 60.7894 38.8871 62.032 39.7899C63.2553 40.6787 63.9457 41.7291 64.1033 42.9413C64.275 44.134 63.846 45.4391 62.8162 46.8565L53.5903 59.5548ZM60.1497 44.3407C60.5306 43.8164 60.728 43.3814 60.742 43.0355C60.7559 42.6897 60.5978 42.3968 60.2678 42.157C59.9377 41.9172 59.6103 41.8574 59.2857 41.9775C58.9805 42.1117 58.6375 42.441 58.2566 42.9652L48.4594 56.4499C47.7258 57.4596 47.6697 58.1901 48.291 58.6415C48.6211 58.8814 48.9485 58.9412 49.2731 58.8211C49.5977 58.7009 49.9575 58.369 50.3525 57.8253L60.1497 44.3407ZM60.3184 70.3613L56.7361 67.7586L65.5018 50.3651L65.3853 50.2805L64.0074 52.4833L54.9304 66.4467L51.9596 64.2883L66.7718 43.9011L70.3542 46.5038L61.8767 63.4393L62.0144 63.4948L63.3923 61.292L72.1599 47.8158L75.1306 49.9741L60.3184 70.3613ZM69.9034 77.3252L66.321 74.7225L75.0868 57.329L74.9703 57.2444L73.5924 59.4471L64.5153 73.4106L61.5446 71.2522L76.3568 50.865L79.9391 53.4677L71.4617 70.4032L71.5993 70.4587L72.9772 68.2559L81.7449 54.7796L84.7156 56.938L69.9034 77.3252ZM89.7403 64.2375L87.1773 62.3754L82.3528 69.0158L84.741 70.751L83.0059 73.1392L80.6176 71.4041L75.8354 77.9862L78.6605 80.0388L76.9254 82.427L71.1296 78.2161L85.9418 57.8289L91.4754 61.8493L89.7403 64.2375ZM94.9627 69.6338C95.3436 69.1095 95.541 68.6745 95.555 68.3286C95.5883 67.9969 95.44 67.7111 95.1099 67.4713C94.7798 67.2315 94.4525 67.1717 94.1279 67.2918C93.8032 67.4119 93.4505 67.7341 93.0696 68.2584L83.2724 81.7431C82.5389 82.7527 82.4924 83.4903 83.1332 83.9558C83.4633 84.1957 83.7809 84.2484 84.0861 84.1142C84.4107 83.994 84.7705 83.6621 85.1655 83.1185L88.0433 79.1575L90.9849 81.2947L88.4033 84.8479C87.3312 86.3236 86.1917 87.157 84.9849 87.3481C83.7781 87.5393 82.5824 87.2046 81.398 86.3441C80.2136 85.4835 79.5162 84.4428 79.3056 83.2219C79.1145 82.015 79.5549 80.6738 80.6271 79.1981L89.8529 66.4998C90.911 65.0436 92.0363 64.2296 93.2291 64.0579C94.4553 63.8808 95.6606 64.2226 96.845 65.0831C98.0294 65.9436 98.7172 66.9773 98.9084 68.1841C99.1136 69.3715 98.6872 70.6934 97.6292 72.1496L95.0265 75.7319L92.0849 73.5947L94.9627 69.6338ZM106.704 76.5621L104.461 74.9327L91.3839 92.9317L88.4132 90.7734L101.49 72.7744L99.2477 71.145L100.983 68.7568L108.439 74.1738L106.704 76.5621Z" fill="black"/>
</svg>
