<svg width="165" height="149" viewBox="0 0 165 149" fill="none" xmlns="http://www.w3.org/2000/svg">
<path fill-rule="evenodd" clip-rule="evenodd" d="M136.965 83.4286L128.544 75.3022C130.875 74.5947 133.468 74.7319 135.83 75.8839L157.567 86.4855L143.36 93.5391L146.438 109.303L128.591 100.598L136.965 83.4286Z" fill="#8BC34A"/>
<path fill-rule="evenodd" clip-rule="evenodd" d="M41.0782 36.6617L52.6662 38.2941C51.7887 36.0219 50.084 34.0627 47.7221 32.9107L25.9856 22.3091L14.8568 45.1265L25.9856 22.3091L29.174 37.847L14.8568 45.1265L32.7041 53.8312L41.0782 36.6617Z" fill="#8BC34A"/>
<rect x="41.1995" y="37.5598" width="105.568" height="36.949" transform="rotate(26 41.1995 37.5598)" fill="#8BC34A"/>
<path d="M46.4792 51.298C46.779 50.6832 46.9045 50.1948 46.8556 49.8327C46.8295 49.4817 46.6229 49.2119 46.2358 49.0231C45.8487 48.8343 45.4975 48.8321 45.1821 49.0165C44.8667 49.2009 44.559 49.6004 44.2592 50.2152L36.5465 66.0286C35.969 67.2126 36.056 67.9879 36.8073 68.3543C37.1944 68.5431 37.5343 68.5398 37.8269 68.3443C38.1424 68.1599 38.4555 67.7489 38.7665 67.1114L41.032 62.4664L44.4816 64.1489L42.4493 68.3157C41.6053 70.0462 40.5735 71.1214 39.354 71.5413C38.1345 71.9612 36.8303 71.8324 35.4414 71.155C34.0524 70.4775 33.1366 69.5235 32.694 68.2929C32.2741 67.0734 32.4861 65.5984 33.3301 63.868L40.5931 48.9767C41.426 47.269 42.4466 46.2166 43.655 45.8195C44.8973 45.4107 46.2129 45.545 47.6018 46.2224C48.9907 46.8999 49.8952 47.8483 50.3151 49.0678C50.7461 50.2645 50.5451 51.7168 49.7122 53.4245L47.6633 57.6254L44.2137 55.943L46.4792 51.298ZM57.6201 51.7428C59.1001 52.4647 60.0561 53.4806 60.4883 54.7906C60.9315 56.0779 60.7311 57.5867 59.8871 59.3172L58.2713 62.6302C57.7604 63.6776 57.1335 64.4429 56.3905 64.926C55.6475 65.4092 54.8392 65.5928 53.9656 65.4768L53.899 65.6134C55.2147 66.9034 55.3505 68.6185 54.3066 70.7589L52.4409 74.5841C52.0967 75.29 51.8249 75.8762 51.6255 76.3427C51.4601 76.7975 51.2899 77.3487 51.115 77.9962L51.0484 78.1328L47.5988 76.4504C47.7959 75.7573 47.9827 75.1719 48.1593 74.6943C48.3697 74.2051 48.6471 73.6075 48.9914 72.9017L51.3068 68.1542C51.8732 66.993 51.701 66.1903 50.7902 65.7461L49.9364 65.3296L45.1055 75.2343L41.6218 73.5352L53.2825 49.6273L57.6201 51.7428ZM51.2857 62.5631L52.1395 62.9796C53.0503 63.4238 53.7944 63.0539 54.3719 61.8699L56.7707 56.9517C57.0705 56.3369 57.1732 55.8374 57.0788 55.4531C56.9844 55.0688 56.7095 54.7656 56.2541 54.5435L55.4002 54.127L51.2857 62.5631ZM68.8789 60.701L65.8733 59.2351L62.0752 67.0222L64.8759 68.3882L63.5099 71.1888L60.7093 69.8229L56.9445 77.5417L60.2575 79.1576L58.8915 81.9582L52.0949 78.6432L63.7555 54.7353L70.2448 57.9004L68.8789 60.701ZM68.9147 86.8468L65.431 85.1477L67.8214 79.3798L66.0454 78.5136L62.9719 83.9483L59.5223 82.2659L73.6079 59.5407L78.1163 61.7395L68.9147 86.8468ZM69.0166 76.4959L73.5483 65.5575L73.4117 65.4908L67.5821 75.7963L69.0166 76.4959ZM87.304 69.6875L84.6741 68.4048L74.3794 89.5121L70.8957 87.813L81.1904 66.7057L78.5605 65.423L79.9265 62.6224L88.6699 66.8869L87.304 69.6875ZM81.9678 93.2132L78.484 91.5141L90.1447 67.6062L93.6284 69.3053L81.9678 93.2132ZM85.6284 94.9986L94.8641 69.908L98.3137 71.5905L90.1964 91.1807L90.333 91.2473L100.773 72.7898L104.257 74.489L90.1367 97.1975L85.6284 94.9986ZM97.3105 100.696L93.8267 98.9972L105.487 75.0893L108.971 76.7884L97.3105 100.696ZM117.789 84.5562L115.159 83.2735L104.865 104.381L101.381 102.682L111.676 81.5744L109.046 80.2917L110.412 77.4911L119.155 81.7555L117.789 84.5562ZM118.537 101.494L114.772 109.213L111.323 107.531L115.087 99.8118L120.012 82.1734L123.496 83.8725L118.427 97.2126L118.563 97.2792L125.955 85.0719L129.404 86.7544L118.537 101.494Z" fill="black"/>
</svg>
