<svg width="153" height="72" viewBox="0 0 153 72" fill="none" xmlns="http://www.w3.org/2000/svg">
<path fill-rule="evenodd" clip-rule="evenodd" d="M125.415 9.95725L113.799 8.53485C115.235 6.56718 117.388 5.11594 119.968 4.61452L143.708 -1.8141e-05L136.606 14.1832L148.552 24.9203L129.06 28.7091L125.415 9.95725Z" fill="#FFCBB0"/>
<path fill-rule="evenodd" clip-rule="evenodd" d="M20.6912 30.3135L30.9281 24.6434C28.8599 23.3568 26.3194 22.818 23.7398 23.3194L5.38754e-05 27.934L4.84407 52.8543L6.82451e-05 27.934L11.8974 38.4243L4.84407 52.8543L24.3362 49.0654L20.6912 30.3135Z" fill="#FFCBB0"/>
<rect x="21.3284" y="30.9578" width="105.568" height="36.949" transform="rotate(-11 21.3284 30.9578)" fill="#FFCBB0"/>
<path d="M59.114 33.3009L55.8314 33.939L57.4846 42.4438L60.5434 41.8493L61.1379 44.908L58.0792 45.5026L59.7178 53.9328L63.3361 53.2295L63.9307 56.2882L56.5076 57.7311L51.4321 31.6198L58.5194 30.2422L59.114 33.3009ZM70.1748 41.332L70.1965 41.4439L74.9869 54.1391L71.1821 54.8787L68.5114 47.1136L67.6361 43.6062L67.4868 43.6352L67.9892 47.2151L68.4964 55.4007L64.7289 56.1331L64.251 42.5222L64.2293 42.4103L59.6534 30.0218L63.4208 29.2895L65.9517 36.7333L66.827 40.2407L67.0135 40.2045L66.4739 36.6318L66.1066 28.7674L69.9114 28.0278L70.1748 41.332ZM77.6762 31.0864C77.5457 30.415 77.352 29.9494 77.095 29.6897C76.863 29.4251 76.5355 29.3339 76.1128 29.416C75.69 29.4982 75.4082 29.7079 75.2673 30.0449C75.1263 30.382 75.1211 30.8863 75.2516 31.5577L78.6087 48.8285C78.8601 50.1216 79.3961 50.6884 80.2167 50.5289C80.6395 50.4467 80.9089 50.2395 81.025 49.9072C81.1659 49.5702 81.1687 49.0535 81.0333 48.3572L80.0472 43.2841L83.8147 42.5518L84.6993 47.1026C85.0667 48.9926 84.8898 50.4722 84.1685 51.5415C83.4473 52.6107 82.3282 53.2928 80.8113 53.5876C79.2943 53.8825 77.9888 53.6717 76.8947 52.9553C75.8254 52.2341 75.1071 50.9285 74.7397 49.0386L71.5784 32.775C71.2159 30.9099 71.3976 29.4551 72.1237 28.4107C72.8698 27.3366 74.0013 26.6522 75.5182 26.3573C77.0352 26.0624 78.3283 26.2756 79.3975 26.9968C80.462 27.6932 81.1754 28.9739 81.538 30.839L82.4298 35.4271L78.6623 36.1595L77.6762 31.0864ZM89.786 27.3389L86.5035 27.977L88.1566 36.4818L91.2154 35.8872L91.8099 38.946L88.7512 39.5405L90.3899 47.9708L94.0081 47.2674L94.6027 50.3262L87.1796 51.7691L82.1041 25.6578L89.1915 24.2802L89.786 27.3389ZM94.5058 23.2472L98.9868 46.2997L102.232 45.6689L102.827 48.7276L95.7765 50.098L90.701 23.9867L94.5058 23.2472Z" fill="black"/>
</svg>
