<svg width="150" height="108" viewBox="0 0 150 108" fill="none" xmlns="http://www.w3.org/2000/svg">
<path fill-rule="evenodd" clip-rule="evenodd" d="M114.679 14.8707L103.155 16.9065C103.952 14.6051 105.588 12.5875 107.908 11.3539L129.261 0.000117039L126.617 15.6398L141.18 22.4152L123.647 31.7375L114.679 14.8707Z" fill="#FCCF00"/>
<path fill-rule="evenodd" clip-rule="evenodd" d="M20.4828 64.9555L28.6147 56.5402C26.2607 55.9145 23.6736 56.1421 21.3533 57.3758L5.31117e-05 68.7295L11.9184 91.1446L6.80092e-05 68.7295L14.4446 75.283L11.9184 91.1446L29.451 81.8224L20.4828 64.9555Z" fill="#FCCF00"/>
<rect x="21.2806" y="65.3854" width="105.568" height="36.949" transform="rotate(-28 21.2806 65.3854)" fill="#FCCF00"/>
<path d="M51.7787 85.2701L48.5365 86.994L36.7058 64.7437L39.948 63.0198L51.7787 85.2701ZM62.4645 79.5883L58.5548 81.6672L46.7643 66.1638L46.6372 66.2314L48.013 68.4355L56.5841 82.715L53.3419 84.4389L41.5112 62.1886L45.4209 60.1098L56.9261 75.1533L57.0364 75.0539L55.6606 72.8499L47.3916 59.062L50.6338 57.3381L62.4645 79.5883ZM72.9254 74.0262L69.0157 76.105L57.2252 60.6016L57.098 60.6692L58.4738 62.8733L67.0449 77.1529L63.8027 78.8768L51.9721 56.6265L55.8818 54.5477L67.387 69.5912L67.4972 69.4918L66.1214 67.2877L57.8525 53.4998L61.0947 51.7759L72.9254 74.0262ZM80.4709 64.5914C81.3047 66.1596 81.5592 67.5328 81.2344 68.7112C80.9096 69.8896 80.0797 70.8338 78.7447 71.5436C77.4097 72.2535 76.1523 72.4192 74.9725 72.0407C73.8139 71.651 72.8178 70.6721 71.984 69.104L64.6152 55.2453C63.8039 53.7195 63.5607 52.3674 63.8855 51.189C64.2103 50.0106 65.0508 49.0609 66.407 48.3398C67.742 47.6299 68.9888 47.4698 70.1473 47.8595C71.2946 48.2281 72.2795 49.1858 73.1021 50.7327L80.4709 64.5914ZM69.6719 52.0265C69.3677 51.4543 69.0633 51.0862 68.7585 50.922C68.4538 50.7579 68.1213 50.7716 67.7611 50.9631C67.4008 51.1547 67.2035 51.4226 67.1692 51.7671C67.1561 52.1002 67.3016 52.5529 67.6059 53.125L75.431 67.842C76.0169 68.9439 76.6489 69.3146 77.327 68.9541C77.6873 68.7625 77.8845 68.4945 77.9189 68.1501C77.9532 67.8057 77.8126 67.3368 77.4971 66.7434L69.6719 52.0265ZM85.6679 67.2509L71.5804 46.2006L74.7908 44.4936L85.2853 61.6238L85.4125 61.5562L77.0794 43.2767L80.3216 41.5528L89.8636 65.02L85.6679 67.2509ZM100.751 59.2313L97.5084 60.9552L94.4188 55.9112L92.7659 56.7901L95.2198 62.172L92.0094 63.879L82.4356 40.4288L86.6313 38.1978L100.751 59.2313ZM92.874 53.3893L87.0139 43.8249L86.8867 43.8925L91.539 54.0991L92.874 53.3893ZM97.8391 35.5819L95.3916 36.8833L105.836 56.5271L102.594 58.251L92.1494 38.6072L89.7019 39.9086L88.316 37.3021L96.4533 32.9754L97.8391 35.5819ZM104.997 31.7761L102.2 33.2634L106.053 40.5107L108.659 39.1248L110.045 41.7312L107.439 43.1171L111.258 50.3008L114.342 48.6614L115.728 51.2679L109.402 54.6312L97.5715 32.3809L103.611 29.1697L104.997 31.7761Z" fill="black"/>
</svg>
