<svg width="162" height="155" viewBox="0 0 162 155" fill="none" xmlns="http://www.w3.org/2000/svg">
<path fill-rule="evenodd" clip-rule="evenodd" d="M142.419 116.838L155.112 94.81L142.418 116.838L125.222 106.89L134.773 90.3149L126.937 81.6008C129.31 81.0568 131.886 81.3748 134.161 82.6906L155.112 94.8099L140.447 100.867L142.419 116.838ZM120.513 86.3526L120.527 86.3278L112.814 99.7129L112.814 99.7128L120.513 86.3526Z" fill="#8BC34A"/>
<path fill-rule="evenodd" clip-rule="evenodd" d="M42.3826 36.871L53.8329 39.3134C53.1168 36.9824 51.5537 34.9061 49.2791 33.5903L28.3279 21.471L15.6345 43.4986L15.6346 43.4986L28.3279 21.471L30.4247 37.2236L15.6346 43.4987L32.8312 53.4461L42.3826 36.871Z" fill="#8BC34A"/>
<rect width="105.657" height="36.9889" transform="matrix(0.865303 0.50054 -0.49946 0.866747 42.4409 37.777)" fill="#8BC34A"/>
<path d="M41.111 73.5778L37.0666 71.2382L44.3409 51.9954L44.2094 51.9193L43.0073 54.3859L35.0279 70.059L31.674 68.1189L44.9596 45.0634L49.0041 47.4029L41.9815 66.1327L42.132 66.1758L43.3341 63.7093L51.0427 48.5822L54.3966 50.5223L41.111 73.5778ZM51.9324 79.8375L47.8879 77.4979L55.1623 58.2551L55.0308 58.179L53.8286 60.6456L45.8493 76.3187L42.4954 74.3786L55.781 51.3231L59.8254 53.6626L52.8029 72.3924L52.9534 72.4355L54.1555 69.969L61.8641 54.8419L65.218 56.782L51.9324 79.8375ZM64.5875 81.3172C63.6512 82.942 62.5653 83.9388 61.3299 84.3074C60.0945 84.676 58.7863 84.4609 57.4053 83.662C56.0243 82.8632 55.1732 81.8293 54.8522 80.5603C54.5532 79.3041 54.8718 77.8636 55.8081 76.2387L64.0832 61.8784C64.9942 60.2975 66.0674 59.3227 67.3028 58.9541C68.5382 58.5855 69.8573 58.8069 71.2603 59.6185C72.6413 60.4173 73.4814 61.4449 73.7804 62.7011C74.0922 63.9354 73.7862 65.354 72.8625 66.9569L64.5875 81.3172ZM69.7882 64.6077C70.1299 64.0148 70.2889 63.5359 70.2654 63.171C70.2418 62.806 70.0438 62.5158 69.6711 62.3002C69.2984 62.0847 68.9485 62.0579 68.6213 62.2199C68.316 62.3947 67.9926 62.7785 67.6509 63.3713L58.8634 78.6209C58.2055 79.7627 58.2272 80.5365 58.9287 80.9422C59.3014 81.1578 59.6513 81.1845 59.9785 81.0225C60.3057 80.8604 60.6465 80.472 61.0007 79.8572L69.7882 64.6077ZM65.114 87.4625L76.065 63.0565L79.3861 64.9776L69.9325 83.9699L70.064 84.046L81.7535 66.3471L85.1075 68.2872L69.4544 89.9732L65.114 87.4625ZM80.7165 96.4878L77.3626 94.5478L80.1464 88.956L78.4366 87.9669L74.9952 93.1783L71.6741 91.2572L87.2943 69.5522L91.6347 72.0629L80.7165 96.4878ZM81.5384 86.1601L86.8162 75.5555L86.6847 75.4794L80.1573 85.3612L81.5384 86.1601ZM100.239 80.641L97.7069 79.1764L85.9776 99.5311L82.6237 97.591L94.353 77.2363L91.8211 75.7718L93.3774 73.071L101.795 77.9402L100.239 80.641ZM93.2832 103.757L89.9293 101.817L103.215 78.7615L106.569 80.7016L93.2832 103.757ZM106.171 105.371C105.235 106.996 104.149 107.993 102.913 108.362C101.678 108.73 100.37 108.515 98.9889 107.716C97.6078 106.917 96.7568 105.884 96.4358 104.615C96.1367 103.358 96.4554 101.918 97.3917 100.293L105.667 85.9327C106.578 84.3518 107.651 83.377 108.886 83.0084C110.122 82.6397 111.441 82.8612 112.844 83.6727C114.225 84.4716 115.065 85.4992 115.364 86.7554C115.676 87.9897 115.37 89.4083 114.446 91.0112L106.171 105.371ZM111.372 88.6619C111.713 88.0691 111.872 87.5902 111.849 87.2253C111.825 86.8603 111.627 86.5701 111.255 86.3545C110.882 86.1389 110.532 86.1122 110.205 86.2742C109.9 86.449 109.576 86.8327 109.235 87.4256L100.447 102.675C99.7891 103.817 99.8108 104.591 100.512 104.996C100.885 105.212 101.235 105.239 101.562 105.077C101.889 104.915 102.23 104.526 102.584 103.911L111.372 88.6619ZM114.42 115.984L110.376 113.644L117.65 94.4015L117.519 94.3255L116.316 96.792L108.337 112.465L104.983 110.525L118.269 87.4695L122.313 89.809L115.291 108.539L115.441 108.582L116.643 106.115L124.352 90.9883L127.706 92.9284L114.42 115.984Z" fill="black"/>
</svg>
