<svg width="168" height="123" viewBox="0 0 168 123" fill="none" xmlns="http://www.w3.org/2000/svg">
<path fill-rule="evenodd" clip-rule="evenodd" d="M120.013 19.2291L108.71 22.2616C109.304 19.8994 110.757 17.747 112.961 16.3158L133.244 3.14417L131.972 18.9548L147.07 24.4353L130.417 35.2501L120.013 19.2291Z" fill="#8BC34A"/>
<path fill-rule="evenodd" clip-rule="evenodd" d="M30.5401 77.3331L37.9076 68.2411C35.508 67.8229 32.9506 68.2751 30.7467 69.7063L10.4643 82.8779L24.2908 104.169L10.4643 82.8779L25.425 88.1475L24.2908 104.169L40.9443 93.3542L30.5401 77.3331Z" fill="#8BC34A"/>
<rect x="31.3724" y="77.6918" width="105.568" height="36.949" transform="rotate(-33 31.3724 77.6918)" fill="#8BC34A"/>
<path d="M61.6445 95.2772L57.7245 97.8228L43.9001 82.6051L43.7726 82.6879L45.4221 84.879L55.7486 99.106L52.4979 101.217L38.0105 78.9084L41.9305 76.3627L55.4126 91.1231L55.5194 91.0085L53.8699 88.8173L43.9064 75.0796L47.1571 72.9685L61.6445 95.2772ZM56.2511 70.7782L53.4466 72.5995L58.1654 79.8657L60.7787 78.1686L62.4758 80.7819L59.8625 82.479L64.5398 89.6815L67.6312 87.674L69.3283 90.2873L62.9862 94.4058L48.4988 72.0972L54.554 68.1649L56.2511 70.7782ZM65.4764 64.7873L63.0224 66.3809L75.8127 86.0762L72.562 88.1873L59.7717 68.4919L57.3178 70.0855L55.6207 67.4722L63.7793 62.174L65.4764 64.7873ZM91.4345 75.9313L87.2277 78.6632L74.8473 61.6922L74.7198 61.7749L85.1562 80.0085L80.9176 82.7611L64.4861 61.7149L67.7049 59.6246L78.8689 75.2108L80.3909 77.4847L80.5502 77.3812L69.7765 58.2793L73.6645 55.7544L85.179 71.113L86.7648 73.3455L86.9241 73.242L85.4977 70.906L75.736 54.4091L78.9549 52.3188L91.4345 75.9313ZM99.8957 64.4103C100.917 65.9826 101.311 67.4032 101.078 68.6722C100.844 69.9413 100.059 71.0104 98.7201 71.8796C97.3816 72.7489 96.0747 73.0388 94.7993 72.7494C93.5452 72.4462 92.4076 71.5085 91.3866 69.9362L82.363 56.0411C81.3696 54.5114 80.9894 53.112 81.2225 51.843C81.4556 50.574 82.2521 49.4979 83.6118 48.6149C84.9504 47.7457 86.2467 47.4626 87.5008 47.7658C88.7411 48.0478 89.8649 48.9643 90.8721 50.5152L99.8957 64.4103ZM87.3843 52.1913C87.0117 51.6176 86.6577 51.2585 86.3222 51.1139C85.9866 50.9693 85.6382 51.0143 85.2771 51.2489C84.9159 51.4835 84.7331 51.7834 84.7287 52.1487C84.7455 52.5003 84.9402 52.9629 85.3127 53.5365L94.8951 68.2921C95.6126 69.3969 96.3113 69.7285 96.9912 69.287C97.3523 69.0525 97.5351 68.7525 97.5395 68.3872C97.5439 68.0219 97.353 67.5417 96.9666 66.9468L87.3843 52.1913ZM93.5035 42.8708C94.8846 41.974 96.2478 41.6777 97.5933 41.982C98.9249 42.265 100.115 43.2139 101.164 44.8287L103.171 47.92C103.806 48.8973 104.139 49.8289 104.17 50.7146C104.202 51.6004 103.943 52.3877 103.394 53.0768L103.476 53.2042C105.26 52.7409 106.8 53.5078 108.097 55.5049L110.415 59.0743C110.843 59.733 111.205 60.2678 111.502 60.679C111.807 61.055 112.192 61.4848 112.657 61.9682L112.739 62.0957L109.521 64.186C109.028 63.6601 108.623 63.1985 108.304 62.8012C107.993 62.3688 107.624 61.8233 107.196 61.1646L104.319 56.7348C103.616 55.6512 102.839 55.3854 101.989 55.9373L101.192 56.4547L107.194 65.6969L103.944 67.8079L89.4561 45.4992L93.5035 42.8708ZM99.5159 53.8733L100.313 53.3559C101.162 52.804 101.229 51.9756 100.511 50.8708L97.5309 46.2816C97.1584 45.7079 96.7831 45.3626 96.4051 45.2456C96.027 45.1287 95.6256 45.2081 95.2006 45.4841L94.4039 46.0015L99.5159 53.8733ZM111.361 44.3688L111.402 44.4325L122.576 55.708L119.325 57.819L110.968 48.9279L110.873 48.99L111.296 50.6183L116.967 59.3505L113.716 61.4615L99.2286 39.1529L102.479 37.0419L106.308 42.9377L108.721 47.3515L108.838 47.3213L104.71 35.5931L107.929 33.5028L111.361 44.3688ZM118.46 36.8134L116.266 33.4352C115.866 32.8191 115.505 32.4494 115.183 32.326C114.883 32.1889 114.562 32.2307 114.223 32.4515C113.883 32.6722 113.704 32.9547 113.685 33.2988C113.667 33.6429 113.858 34.123 114.258 34.7391L115.645 36.8744C116.155 37.6605 116.837 38.2449 117.69 38.6276C118.528 38.989 119.424 39.2984 120.377 39.5558C121 39.725 121.648 39.9084 122.32 40.1063C122.978 40.2828 123.622 40.5295 124.25 40.8462C124.886 41.1279 125.493 41.5041 126.071 41.9749C126.648 42.4456 127.165 43.0315 127.62 43.7326L128.841 45.6129C129.876 47.2064 130.266 48.6446 130.012 49.9274C129.744 51.189 128.94 52.2544 127.602 53.1236C126.263 53.9929 124.963 54.2934 123.702 54.0252C122.448 53.722 121.303 52.7737 120.268 51.1802L118.364 48.2482L121.583 46.1579L123.777 49.5361C124.177 50.1522 124.545 50.5326 124.88 50.6772C125.202 50.8005 125.544 50.7449 125.905 50.5103C126.266 50.2758 126.456 49.9864 126.474 49.6423C126.499 49.2632 126.312 48.7656 125.912 48.1494L124.525 46.0142C123.974 45.1643 123.187 44.5576 122.165 44.1939C121.151 43.7953 120.087 43.4592 118.973 43.1858C118.385 43.0241 117.8 42.8449 117.22 42.6482C116.639 42.4515 116.076 42.2128 115.531 41.9322C114.973 41.6304 114.436 41.2691 113.921 40.8483C113.414 40.3925 112.953 39.8459 112.539 39.2085L111.277 37.2644C110.242 35.671 109.855 34.261 110.115 33.0344C110.384 31.7728 111.176 30.7143 112.494 29.8589C113.832 28.9896 115.122 28.696 116.362 28.978C117.602 29.2599 118.733 30.187 119.754 31.7592L121.679 34.7231L118.46 36.8134Z" fill="black"/>
</svg>
