<svg width="165" height="104" viewBox="0 0 165 104" fill="none" xmlns="http://www.w3.org/2000/svg">
<path fill-rule="evenodd" clip-rule="evenodd" d="M124.44 15.7051L112.802 16.9321C113.759 14.6919 115.531 12.7934 117.931 11.7245L140.025 1.88798L136.296 17.3051L150.35 25.0799L132.21 33.1564L124.44 15.7051Z" fill="#8BC34A"/>
<path fill-rule="evenodd" clip-rule="evenodd" d="M26.9799 59.0972L35.679 51.2696C33.3744 50.4812 30.7777 50.5278 28.3771 51.5966L6.28382 61.4332L16.6095 84.6251L6.28384 61.4332L20.2361 68.9783L16.6095 84.6251L34.7497 76.5486L26.9799 59.0972Z" fill="#8BC34A"/>
<rect x="27.7458" y="59.5817" width="105.568" height="36.949" transform="rotate(-24 27.7458 59.5817)" fill="#8BC34A"/>
<path d="M50.0059 66.9898C50.7787 68.7256 50.9315 70.2521 50.4642 71.5694C49.9866 72.8635 48.9956 73.8454 47.4913 74.5152L46.6235 74.9016L50.472 83.5456L46.9311 85.1221L36.1119 60.8218L40.5207 58.8588C42.025 58.1891 43.4178 58.1097 44.6991 58.6208C45.9701 59.1086 46.9971 60.232 47.7802 61.9909L50.0059 66.9898ZM43.9649 62.8577C43.6867 62.2328 43.3701 61.833 43.015 61.6584C42.6599 61.4837 42.2509 61.4994 41.7881 61.7055L40.9202 62.0919L45.3561 72.055L46.2239 71.6686C46.6868 71.4625 46.9721 71.1691 47.0799 70.7883C47.1877 70.4076 47.0973 69.8932 46.8088 69.2452L43.9649 62.8577ZM51.2334 54.0892C52.7377 53.4195 54.1305 53.3401 55.4118 53.8511C56.6828 54.339 57.7099 55.4624 58.493 57.2213L59.9922 60.5886C60.4662 61.6532 60.6495 62.6254 60.542 63.5051C60.4345 64.3849 60.0556 65.1221 59.4052 65.7167L59.4671 65.8556C61.3009 65.6769 62.7022 66.6753 63.6707 68.8507L65.4018 72.7388C65.7212 73.4562 65.9956 74.0412 66.2248 74.4938C66.4668 74.9129 66.7797 75.3975 67.1633 75.9477L67.2251 76.0866L63.7189 77.6477C63.3147 77.0512 62.9864 76.5318 62.734 76.0895C62.4945 75.6138 62.215 75.0173 61.8956 74.2998L59.7472 69.4745C59.2217 68.2942 58.4961 67.9101 57.5704 68.3223L56.7025 68.7087L61.1848 78.7759L57.6439 80.3525L46.8247 56.0521L51.2334 54.0892ZM55.4506 65.8968L56.3185 65.5104C57.2442 65.0982 57.4391 64.2904 56.9033 63.087L54.6777 58.088C54.3995 57.4632 54.0828 57.0634 53.7277 56.8887C53.3727 56.7141 52.9637 56.7298 52.5008 56.9358L51.633 57.3222L55.4506 65.8968ZM65.3328 51.2227L62.2779 52.5828L65.8019 60.4978L68.6485 59.2304L69.9159 62.077L67.0693 63.3444L70.5623 71.1899L73.9296 69.6907L75.197 72.5373L68.2888 75.613L57.4696 51.3127L64.0654 48.3761L65.3328 51.2227ZM73.022 49.2967C72.7438 48.6718 72.4503 48.2617 72.1415 48.0665C71.8559 47.8609 71.5163 47.8457 71.1229 48.0208C70.7295 48.196 70.502 48.4636 70.4405 48.8238C70.379 49.1839 70.4873 49.6765 70.7656 50.3013L77.9217 66.3742C78.4575 67.5777 79.1073 68.0094 79.871 67.6694C80.2644 67.4942 80.4803 67.2317 80.5187 66.8818C80.5802 66.5217 80.4666 66.0176 80.1781 65.3696L78.0761 60.6484L81.5823 59.0873L83.4679 63.3225C84.251 65.0814 84.4115 66.5629 83.9493 67.767C83.4871 68.9711 82.5501 69.8874 81.1384 70.516C79.7266 71.1445 78.4071 71.2328 77.1799 70.7809C75.9758 70.3187 74.9822 69.2082 74.1991 67.4493L67.4603 52.3137C66.6875 50.5779 66.5373 49.1196 67.0099 47.9386C67.4952 46.7242 68.4438 45.8028 69.8555 45.1742C71.2672 44.5457 72.5751 44.4625 73.7792 44.9247C74.973 45.3638 75.9563 46.4512 76.7291 48.1869L78.6302 52.4568L75.124 54.0179L73.022 49.2967ZM90.753 65.6113L87.2121 67.1878L76.3929 42.8875L79.9338 41.311L90.753 65.6113ZM90.8312 45.7767L89.1928 42.097C88.894 41.4258 88.5954 41.0042 88.2969 40.832C88.0215 40.6496 87.6987 40.6408 87.3284 40.8056C86.9581 40.9705 86.7371 41.2214 86.6653 41.5585C86.5935 41.8955 86.707 42.3995 87.0058 43.0707L88.0414 45.3966C88.4226 46.2529 89.0044 46.9367 89.7867 47.4481C90.5586 47.9363 91.3949 48.382 92.2954 48.7853C92.8847 49.0498 93.4957 49.3323 94.1287 49.6329C94.7514 49.9103 95.3483 50.2546 95.9196 50.6657C96.5038 51.0435 97.0442 51.51 97.541 52.0652C98.0378 52.6205 98.4563 53.28 98.7963 54.0437L99.7082 56.0919C100.481 57.8276 100.641 59.3091 100.19 60.5364C99.7273 61.7405 98.7672 62.6671 97.3092 63.3162C95.8512 63.9654 94.5201 64.0589 93.316 63.5967C92.1248 63.101 91.1427 61.9853 90.3699 60.2496L88.948 57.0558L92.4542 55.4948L94.0925 59.1745C94.3913 59.8457 94.6951 60.2789 95.0039 60.4742C95.3024 60.6463 95.6484 60.6448 96.0418 60.4696C96.4352 60.2945 96.6679 60.0384 96.7397 59.7014C96.8243 59.3309 96.7172 58.8101 96.4184 58.139L95.3828 55.8131C94.9707 54.8874 94.2886 54.165 93.3365 53.646C92.3973 53.0936 91.399 52.5953 90.3415 52.151C89.7857 51.8993 89.2364 51.6308 88.6935 51.3457C88.1505 51.0605 87.632 50.7368 87.1379 50.3744C86.6335 49.9889 86.1599 49.5481 85.7172 49.0519C85.2873 48.5223 84.9178 47.9104 84.6087 47.2161L83.6658 45.0985C82.893 43.3628 82.7313 41.9096 83.1807 40.7389C83.6429 39.5348 84.5914 38.6133 86.0263 37.9745C87.4843 37.3253 88.8038 37.237 89.9848 37.7095C91.1657 38.1821 92.1375 39.2746 92.9 40.9872L94.3374 44.2157L90.8312 45.7767ZM106.992 58.3814L103.451 59.9579L92.6316 35.6576L96.1725 34.0811L106.992 58.3814ZM115.877 48.8929C116.64 50.6055 116.807 52.0703 116.378 53.2872C115.949 54.5042 115.006 55.4372 113.548 56.0863C112.09 56.7355 110.754 56.8174 109.539 56.332C108.348 55.8364 107.371 54.7323 106.609 53.0197L99.8698 37.884C99.1279 36.2177 98.9713 34.7761 99.4001 33.5592C99.8288 32.3422 100.784 31.404 102.265 30.7446C103.723 30.0954 105.048 30.0187 106.239 30.5143C107.42 30.9869 108.386 32.0678 109.139 33.7573L115.877 48.8929ZM105.431 34.8671C105.153 34.2422 104.86 33.8321 104.551 33.6368C104.242 33.4415 103.891 33.4315 103.498 33.6067C103.104 33.7818 102.877 34.0495 102.815 34.4096C102.777 34.7595 102.897 35.2468 103.175 35.8717L110.331 51.9446C110.867 53.1481 111.505 53.5849 112.246 53.2552C112.639 53.08 112.867 52.8124 112.928 52.4522C112.99 52.0921 112.876 51.588 112.588 50.94L105.431 34.8671ZM129.307 48.446L125.037 50.3471L113.763 33.1541L113.625 33.2159L114.911 35.6381L122.885 51.3053L119.344 52.8818L108.525 28.5815L112.795 26.6804L123.802 43.3682L123.925 43.2716L122.639 40.8494L114.947 25.7222L118.488 24.1457L129.307 48.446Z" fill="black"/>
</svg>
